<mxfile host="app.diagrams.net" modified="2024-04-12T15:48:28.674Z" agent="Mozilla/5.0 (Macintosh; Intel Mac OS X 10_15_7) AppleWebKit/605.1.15 (KHTML, like Gecko) Version/17.4 Safari/605.1.15" version="24.2.3" etag="Aj1iNV30aLuq0reF0L1J" type="github">
  <diagram name="Page-1" id="_tdnHkj1NspLOcnDMXyV">
    <mxGraphModel>
      <root>
        <mxCell id="0" />
        <mxCell id="1" parent="0" />
      </root>
    </mxGraphModel>
  </diagram>
</mxfile>
